<svg width="360" height="150" viewBox="0 0 360 150" fill="none" xmlns="http://www.w3.org/2000/svg">
<path fill-rule="evenodd" clip-rule="evenodd" d="M359.999 77.3996C359.999 51.7996 347.599 31.5996 323.899 31.5996C300.099 31.5996 285.699 51.7996 285.699 77.1996C285.699 107.3 302.699 122.5 327.099 122.5C338.999 122.5 347.999 119.8 354.799 116V95.9996C347.999 99.3996 340.199 101.5 330.299 101.5C320.599 101.5 311.999 98.0996 310.899 86.2996H359.799C359.799 84.9996 359.999 79.7996 359.999 77.3996ZM310.599 67.8996C310.599 56.5996 317.499 51.8996 323.799 51.8996C329.899 51.8996 336.399 56.5996 336.399 67.8996H310.599Z" fill="white"/>
<path fill-rule="evenodd" clip-rule="evenodd" d="M247.099 31.5996C237.299 31.5996 230.999 36.1996 227.499 39.3996L226.199 33.1996H204.199V149.8L229.199 144.5L229.299 116.2C232.899 118.8 238.199 122.5 246.999 122.5C264.899 122.5 281.199 108.1 281.199 76.3996C281.099 47.3996 264.599 31.5996 247.099 31.5996ZM241.099 100.5C235.199 100.5 231.699 98.3996 229.299 95.7996L229.199 58.6996C231.799 55.7996 235.399 53.7996 241.099 53.7996C250.199 53.7996 256.499 63.9996 256.499 77.0996C256.499 90.4996 250.299 100.5 241.099 100.5Z" fill="white"/>
<path fill-rule="evenodd" clip-rule="evenodd" d="M169.801 25.7L194.901 20.3V0L169.801 5.3V25.7Z" fill="white"/>
<path d="M194.901 33.2998H169.801V120.8H194.901V33.2998Z" fill="white"/>
<path fill-rule="evenodd" clip-rule="evenodd" d="M142.899 40.7003L141.299 33.3003H119.699V120.8H144.699V61.5003C150.599 53.8003 160.599 55.2003 163.699 56.3003V33.3003C160.499 32.1003 148.799 29.9003 142.899 40.7003Z" fill="white"/>
<path fill-rule="evenodd" clip-rule="evenodd" d="M92.8984 11.5996L68.4984 16.7996L68.3984 96.8996C68.3984 111.7 79.4984 122.6 94.2984 122.6C102.498 122.6 108.498 121.1 111.798 119.3V98.9996C108.598 100.3 92.7984 104.9 92.7984 90.0996V54.5996H111.798V33.2996H92.7984L92.8984 11.5996Z" fill="white"/>
<path fill-rule="evenodd" clip-rule="evenodd" d="M25.3 58.6996C25.3 54.7996 28.5 53.2996 33.8 53.2996C41.4 53.2996 51 55.5996 58.6 59.6996V36.1996C50.3 32.8996 42.1 31.5996 33.8 31.5996C13.5 31.5996 0 42.1996 0 59.8996C0 87.4996 38 83.0996 38 94.9996C38 99.5996 34 101.1 28.4 101.1C20.1 101.1 9.5 97.6996 1.1 93.0996V116.9C10.4 120.9 19.8 122.6 28.4 122.6C49.2 122.6 63.5 112.3 63.5 94.3996C63.4 64.5996 25.3 69.8996 25.3 58.6996Z" fill="white"/>
</svg>
